<mxfile host="app.diagrams.net" modified="2023-09-14T10:55:38.657Z" agent="Mozilla/5.0 (Windows NT 10.0; Win64; x64) AppleWebKit/537.36 (KHTML, like Gecko) Chrome/116.0.0.0 Safari/537.36" etag="S_xKC8JsI1Od4X4Fw9db" version="21.7.5" type="device">
  <diagram name="Page-1" id="8pNY_bg-7wQrWex4wAmK">
    <mxGraphModel dx="2284" dy="1890" grid="1" gridSize="10" guides="1" tooltips="1" connect="1" arrows="1" fold="1" page="1" pageScale="1" pageWidth="850" pageHeight="1100" math="0" shadow="0">
      <root>
        <mxCell id="0" />
        <mxCell id="1" parent="0" />
        <mxCell id="MV8AUcDROkqsjR5Ie3FV-18" value="" style="edgeStyle=orthogonalEdgeStyle;rounded=0;orthogonalLoop=1;jettySize=auto;html=1;" parent="1" source="MV8AUcDROkqsjR5Ie3FV-1" target="MV8AUcDROkqsjR5Ie3FV-15" edge="1">
          <mxGeometry relative="1" as="geometry" />
        </mxCell>
        <mxCell id="MV8AUcDROkqsjR5Ie3FV-1" value="&lt;font style=&quot;font-size: 14px;&quot;&gt;Development Server/ Baseline Server (Re 0(A))&lt;/font&gt;" style="rounded=1;whiteSpace=wrap;html=1;fillColor=#dae8fc;strokeColor=#6c8ebf;" parent="1" vertex="1">
          <mxGeometry x="-140" y="350" width="240" height="70" as="geometry" />
        </mxCell>
        <mxCell id="MV8AUcDROkqsjR5Ie3FV-12" style="edgeStyle=orthogonalEdgeStyle;rounded=0;orthogonalLoop=1;jettySize=auto;html=1;entryX=0.5;entryY=0;entryDx=0;entryDy=0;" parent="1" source="MV8AUcDROkqsjR5Ie3FV-2" target="MV8AUcDROkqsjR5Ie3FV-4" edge="1">
          <mxGeometry relative="1" as="geometry">
            <Array as="points">
              <mxPoint x="290" y="120" />
              <mxPoint x="-20" y="120" />
            </Array>
          </mxGeometry>
        </mxCell>
        <mxCell id="MV8AUcDROkqsjR5Ie3FV-13" style="edgeStyle=orthogonalEdgeStyle;rounded=0;orthogonalLoop=1;jettySize=auto;html=1;entryX=0.583;entryY=-0.029;entryDx=0;entryDy=0;entryPerimeter=0;" parent="1" source="MV8AUcDROkqsjR5Ie3FV-2" target="MV8AUcDROkqsjR5Ie3FV-5" edge="1">
          <mxGeometry relative="1" as="geometry">
            <Array as="points">
              <mxPoint x="290" y="120" />
              <mxPoint x="560" y="120" />
            </Array>
          </mxGeometry>
        </mxCell>
        <mxCell id="MV8AUcDROkqsjR5Ie3FV-2" value="Start" style="ellipse;whiteSpace=wrap;html=1;fillColor=#d5e8d4;strokeColor=#125916;" parent="1" vertex="1">
          <mxGeometry x="240" y="-40" width="100" height="50" as="geometry" />
        </mxCell>
        <mxCell id="MV8AUcDROkqsjR5Ie3FV-17" value="" style="edgeStyle=orthogonalEdgeStyle;rounded=0;orthogonalLoop=1;jettySize=auto;html=1;" parent="1" source="MV8AUcDROkqsjR5Ie3FV-4" target="MV8AUcDROkqsjR5Ie3FV-1" edge="1">
          <mxGeometry relative="1" as="geometry" />
        </mxCell>
        <mxCell id="MV8AUcDROkqsjR5Ie3FV-4" value="&lt;font style=&quot;font-size: 13px;&quot;&gt;Monthly deployment to release server.&lt;/font&gt;" style="rounded=1;whiteSpace=wrap;html=1;fillColor=#dae8fc;strokeColor=#6c8ebf;" parent="1" vertex="1">
          <mxGeometry x="-140" y="180" width="240" height="70" as="geometry" />
        </mxCell>
        <mxCell id="MV8AUcDROkqsjR5Ie3FV-33" value="" style="edgeStyle=orthogonalEdgeStyle;rounded=0;orthogonalLoop=1;jettySize=auto;html=1;" parent="1" source="MV8AUcDROkqsjR5Ie3FV-5" target="MV8AUcDROkqsjR5Ie3FV-32" edge="1">
          <mxGeometry relative="1" as="geometry" />
        </mxCell>
        <mxCell id="MV8AUcDROkqsjR5Ie3FV-5" value="&lt;font style=&quot;font-size: 13px;&quot;&gt;Live issue in working envirnoment&lt;/font&gt;" style="rounded=1;whiteSpace=wrap;html=1;fillColor=#dae8fc;strokeColor=#6c8ebf;" parent="1" vertex="1">
          <mxGeometry x="420" y="180" width="240" height="70" as="geometry" />
        </mxCell>
        <mxCell id="MV8AUcDROkqsjR5Ie3FV-27" value="" style="edgeStyle=orthogonalEdgeStyle;rounded=0;orthogonalLoop=1;jettySize=auto;html=1;" parent="1" source="MV8AUcDROkqsjR5Ie3FV-10" target="MV8AUcDROkqsjR5Ie3FV-26" edge="1">
          <mxGeometry relative="1" as="geometry" />
        </mxCell>
        <mxCell id="MV8AUcDROkqsjR5Ie3FV-31" style="edgeStyle=orthogonalEdgeStyle;rounded=0;orthogonalLoop=1;jettySize=auto;html=1;entryX=-0.025;entryY=0.514;entryDx=0;entryDy=0;entryPerimeter=0;" parent="1" source="MV8AUcDROkqsjR5Ie3FV-10" target="MV8AUcDROkqsjR5Ie3FV-1" edge="1">
          <mxGeometry relative="1" as="geometry">
            <Array as="points">
              <mxPoint x="-210" y="990" />
              <mxPoint x="-210" y="386" />
            </Array>
          </mxGeometry>
        </mxCell>
        <mxCell id="MV8AUcDROkqsjR5Ie3FV-10" value="QA Integration team Response" style="rhombus;whiteSpace=wrap;html=1;fillColor=#f8cecc;strokeColor=#B82A2A;" parent="1" vertex="1">
          <mxGeometry x="-117.5" y="940" width="195" height="100" as="geometry" />
        </mxCell>
        <mxCell id="MV8AUcDROkqsjR5Ie3FV-21" value="" style="edgeStyle=orthogonalEdgeStyle;rounded=0;orthogonalLoop=1;jettySize=auto;html=1;" parent="1" source="MV8AUcDROkqsjR5Ie3FV-15" target="MV8AUcDROkqsjR5Ie3FV-19" edge="1">
          <mxGeometry relative="1" as="geometry" />
        </mxCell>
        <mxCell id="MV8AUcDROkqsjR5Ie3FV-15" value="&lt;font style=&quot;font-size: 13px;&quot;&gt;Each team take a branch to work, test and execute.&lt;/font&gt;" style="rounded=1;whiteSpace=wrap;html=1;fillColor=#dae8fc;strokeColor=#6c8ebf;" parent="1" vertex="1">
          <mxGeometry x="-140" y="500" width="240" height="70" as="geometry" />
        </mxCell>
        <mxCell id="MV8AUcDROkqsjR5Ie3FV-22" value="" style="edgeStyle=orthogonalEdgeStyle;rounded=0;orthogonalLoop=1;jettySize=auto;html=1;" parent="1" source="MV8AUcDROkqsjR5Ie3FV-19" target="MV8AUcDROkqsjR5Ie3FV-20" edge="1">
          <mxGeometry relative="1" as="geometry" />
        </mxCell>
        <mxCell id="MV8AUcDROkqsjR5Ie3FV-19" value="&lt;font style=&quot;font-size: 13px;&quot;&gt;Make a pull request and merge it to parent branch on Git.&lt;/font&gt;" style="rounded=1;whiteSpace=wrap;html=1;fillColor=#dae8fc;strokeColor=#6c8ebf;" parent="1" vertex="1">
          <mxGeometry x="-140" y="650" width="240" height="70" as="geometry" />
        </mxCell>
        <mxCell id="MV8AUcDROkqsjR5Ie3FV-25" value="" style="edgeStyle=orthogonalEdgeStyle;rounded=0;orthogonalLoop=1;jettySize=auto;html=1;" parent="1" source="MV8AUcDROkqsjR5Ie3FV-20" target="MV8AUcDROkqsjR5Ie3FV-10" edge="1">
          <mxGeometry relative="1" as="geometry" />
        </mxCell>
        <mxCell id="MV8AUcDROkqsjR5Ie3FV-20" value="&lt;span style=&quot;font-size: 13px;&quot;&gt;Send it as a whole to QA Integration team for further&amp;nbsp;testing.&lt;/span&gt;" style="rounded=1;whiteSpace=wrap;html=1;fillColor=#dae8fc;strokeColor=#6c8ebf;" parent="1" vertex="1">
          <mxGeometry x="-140" y="800" width="240" height="70" as="geometry" />
        </mxCell>
        <mxCell id="MV8AUcDROkqsjR5Ie3FV-23" value="NO" style="text;html=1;strokeColor=none;fillColor=none;align=center;verticalAlign=middle;whiteSpace=wrap;rounded=0;" parent="1" vertex="1">
          <mxGeometry x="-160" y="940" width="60" height="30" as="geometry" />
        </mxCell>
        <mxCell id="MV8AUcDROkqsjR5Ie3FV-24" value="YES" style="text;html=1;strokeColor=none;fillColor=none;align=center;verticalAlign=middle;whiteSpace=wrap;rounded=0;" parent="1" vertex="1">
          <mxGeometry x="460" y="1300" width="60" height="30" as="geometry" />
        </mxCell>
        <mxCell id="MV8AUcDROkqsjR5Ie3FV-56" value="" style="edgeStyle=orthogonalEdgeStyle;rounded=0;orthogonalLoop=1;jettySize=auto;html=1;" parent="1" source="MV8AUcDROkqsjR5Ie3FV-26" target="MV8AUcDROkqsjR5Ie3FV-55" edge="1">
          <mxGeometry relative="1" as="geometry" />
        </mxCell>
        <mxCell id="MV8AUcDROkqsjR5Ie3FV-26" value="&lt;span style=&quot;font-size: 13px;&quot;&gt;Verified and Send it to Dev-ops for further&amp;nbsp;regression testing&lt;/span&gt;" style="rounded=1;whiteSpace=wrap;html=1;fillColor=#dae8fc;strokeColor=#6c8ebf;" parent="1" vertex="1">
          <mxGeometry x="-140" y="1150" width="240" height="70" as="geometry" />
        </mxCell>
        <mxCell id="MV8AUcDROkqsjR5Ie3FV-62" value="" style="edgeStyle=orthogonalEdgeStyle;rounded=0;orthogonalLoop=1;jettySize=auto;html=1;" parent="1" source="MV8AUcDROkqsjR5Ie3FV-28" target="MV8AUcDROkqsjR5Ie3FV-61" edge="1">
          <mxGeometry relative="1" as="geometry" />
        </mxCell>
        <mxCell id="MV8AUcDROkqsjR5Ie3FV-28" value="&lt;font style=&quot;font-size: 14px;&quot;&gt;Release Server (Re 0A)&lt;/font&gt;" style="rounded=1;whiteSpace=wrap;html=1;fillColor=#dae8fc;strokeColor=#6c8ebf;" parent="1" vertex="1">
          <mxGeometry x="-140" y="1470" width="240" height="70" as="geometry" />
        </mxCell>
        <mxCell id="MV8AUcDROkqsjR5Ie3FV-36" value="" style="edgeStyle=orthogonalEdgeStyle;rounded=0;orthogonalLoop=1;jettySize=auto;html=1;" parent="1" source="MV8AUcDROkqsjR5Ie3FV-32" target="MV8AUcDROkqsjR5Ie3FV-34" edge="1">
          <mxGeometry relative="1" as="geometry" />
        </mxCell>
        <mxCell id="MV8AUcDROkqsjR5Ie3FV-32" value="&lt;span style=&quot;font-size: 13px;&quot;&gt;Assigned the work to particular team.&lt;/span&gt;" style="rounded=1;whiteSpace=wrap;html=1;fillColor=#dae8fc;strokeColor=#6c8ebf;" parent="1" vertex="1">
          <mxGeometry x="420" y="330" width="240" height="70" as="geometry" />
        </mxCell>
        <mxCell id="MV8AUcDROkqsjR5Ie3FV-43" value="" style="edgeStyle=orthogonalEdgeStyle;rounded=0;orthogonalLoop=1;jettySize=auto;html=1;" parent="1" source="MV8AUcDROkqsjR5Ie3FV-34" target="MV8AUcDROkqsjR5Ie3FV-37" edge="1">
          <mxGeometry relative="1" as="geometry" />
        </mxCell>
        <mxCell id="MV8AUcDROkqsjR5Ie3FV-34" value="&lt;span style=&quot;font-size: 13px;&quot;&gt;Tested by QA within the team.&lt;/span&gt;" style="rounded=1;whiteSpace=wrap;html=1;fillColor=#dae8fc;strokeColor=#6c8ebf;" parent="1" vertex="1">
          <mxGeometry x="420" y="480" width="240" height="70" as="geometry" />
        </mxCell>
        <mxCell id="MV8AUcDROkqsjR5Ie3FV-46" style="edgeStyle=orthogonalEdgeStyle;rounded=0;orthogonalLoop=1;jettySize=auto;html=1;entryX=0.542;entryY=0.143;entryDx=0;entryDy=0;entryPerimeter=0;" parent="1" source="MV8AUcDROkqsjR5Ie3FV-35" target="MV8AUcDROkqsjR5Ie3FV-45" edge="1">
          <mxGeometry relative="1" as="geometry" />
        </mxCell>
        <mxCell id="MV8AUcDROkqsjR5Ie3FV-35" value="&lt;span style=&quot;font-size: 13px;&quot;&gt;Dev-ops Team Reconfirmation and deployment&lt;/span&gt;" style="rounded=1;whiteSpace=wrap;html=1;fillColor=#dae8fc;strokeColor=#6c8ebf;" parent="1" vertex="1">
          <mxGeometry x="420" y="800" width="240" height="70" as="geometry" />
        </mxCell>
        <mxCell id="MV8AUcDROkqsjR5Ie3FV-39" value="" style="edgeStyle=orthogonalEdgeStyle;rounded=0;orthogonalLoop=1;jettySize=auto;html=1;" parent="1" source="MV8AUcDROkqsjR5Ie3FV-37" target="MV8AUcDROkqsjR5Ie3FV-35" edge="1">
          <mxGeometry relative="1" as="geometry" />
        </mxCell>
        <mxCell id="MV8AUcDROkqsjR5Ie3FV-44" style="edgeStyle=orthogonalEdgeStyle;rounded=0;orthogonalLoop=1;jettySize=auto;html=1;entryX=0;entryY=0.5;entryDx=0;entryDy=0;" parent="1" source="MV8AUcDROkqsjR5Ie3FV-37" target="MV8AUcDROkqsjR5Ie3FV-32" edge="1">
          <mxGeometry relative="1" as="geometry">
            <Array as="points">
              <mxPoint x="360" y="680" />
              <mxPoint x="360" y="365" />
            </Array>
          </mxGeometry>
        </mxCell>
        <mxCell id="MV8AUcDROkqsjR5Ie3FV-37" value="QA Passed Work" style="rhombus;whiteSpace=wrap;html=1;fillColor=#f8cecc;strokeColor=#B82A2A;" parent="1" vertex="1">
          <mxGeometry x="442.5" y="630" width="195" height="100" as="geometry" />
        </mxCell>
        <mxCell id="MV8AUcDROkqsjR5Ie3FV-38" value="YES" style="text;html=1;strokeColor=none;fillColor=none;align=center;verticalAlign=middle;whiteSpace=wrap;rounded=0;" parent="1" vertex="1">
          <mxGeometry x="470" y="740" width="60" height="30" as="geometry" />
        </mxCell>
        <mxCell id="MV8AUcDROkqsjR5Ie3FV-42" value="NO" style="text;html=1;strokeColor=none;fillColor=none;align=center;verticalAlign=middle;whiteSpace=wrap;rounded=0;" parent="1" vertex="1">
          <mxGeometry x="382.5" y="640" width="60" height="30" as="geometry" />
        </mxCell>
        <mxCell id="MV8AUcDROkqsjR5Ie3FV-50" value="" style="edgeStyle=orthogonalEdgeStyle;rounded=0;orthogonalLoop=1;jettySize=auto;html=1;" parent="1" source="MV8AUcDROkqsjR5Ie3FV-45" target="MV8AUcDROkqsjR5Ie3FV-49" edge="1">
          <mxGeometry relative="1" as="geometry" />
        </mxCell>
        <mxCell id="MV8AUcDROkqsjR5Ie3FV-45" value="&lt;font style=&quot;font-size: 14px;&quot;&gt;Release Server (Re 0(A-1))*&lt;/font&gt;" style="rounded=1;whiteSpace=wrap;html=1;fillColor=#dae8fc;strokeColor=#6c8ebf;" parent="1" vertex="1">
          <mxGeometry x="410.01" y="1060" width="240" height="70" as="geometry" />
        </mxCell>
        <mxCell id="MV8AUcDROkqsjR5Ie3FV-59" style="edgeStyle=orthogonalEdgeStyle;rounded=0;orthogonalLoop=1;jettySize=auto;html=1;entryX=0;entryY=0.5;entryDx=0;entryDy=0;" parent="1" source="MV8AUcDROkqsjR5Ie3FV-49" target="MV8AUcDROkqsjR5Ie3FV-45" edge="1">
          <mxGeometry relative="1" as="geometry">
            <Array as="points">
              <mxPoint x="310" y="1235" />
              <mxPoint x="310" y="1095" />
            </Array>
          </mxGeometry>
        </mxCell>
        <mxCell id="MV8AUcDROkqsjR5Ie3FV-60" style="edgeStyle=orthogonalEdgeStyle;rounded=0;orthogonalLoop=1;jettySize=auto;html=1;entryX=1;entryY=0.5;entryDx=0;entryDy=0;" parent="1" source="MV8AUcDROkqsjR5Ie3FV-49" target="MV8AUcDROkqsjR5Ie3FV-55" edge="1">
          <mxGeometry relative="1" as="geometry">
            <Array as="points">
              <mxPoint x="530" y="1338" />
            </Array>
          </mxGeometry>
        </mxCell>
        <mxCell id="MV8AUcDROkqsjR5Ie3FV-49" value="&amp;nbsp;Deploy/sync changes to Development Server/ Baseline Server (Re 0A)" style="rhombus;whiteSpace=wrap;html=1;fillColor=#f8cecc;strokeColor=#B82A2A;" parent="1" vertex="1">
          <mxGeometry x="390.64" y="1167.5" width="278.75" height="135" as="geometry" />
        </mxCell>
        <mxCell id="MV8AUcDROkqsjR5Ie3FV-52" value="NO" style="text;html=1;strokeColor=none;fillColor=none;align=center;verticalAlign=middle;whiteSpace=wrap;rounded=0;" parent="1" vertex="1">
          <mxGeometry x="322.5" y="1210" width="60" height="30" as="geometry" />
        </mxCell>
        <mxCell id="MV8AUcDROkqsjR5Ie3FV-57" value="" style="edgeStyle=orthogonalEdgeStyle;rounded=0;orthogonalLoop=1;jettySize=auto;html=1;" parent="1" source="MV8AUcDROkqsjR5Ie3FV-55" target="MV8AUcDROkqsjR5Ie3FV-28" edge="1">
          <mxGeometry relative="1" as="geometry" />
        </mxCell>
        <mxCell id="MV8AUcDROkqsjR5Ie3FV-55" value="&lt;span style=&quot;font-size: 13px;&quot;&gt;Check and Sync all the lags in DB before deploying.&amp;nbsp;&lt;/span&gt;" style="rounded=1;whiteSpace=wrap;html=1;fillColor=#dae8fc;strokeColor=#6c8ebf;" parent="1" vertex="1">
          <mxGeometry x="-140" y="1302.5" width="240" height="70" as="geometry" />
        </mxCell>
        <mxCell id="MV8AUcDROkqsjR5Ie3FV-64" value="" style="edgeStyle=orthogonalEdgeStyle;rounded=0;orthogonalLoop=1;jettySize=auto;html=1;" parent="1" source="MV8AUcDROkqsjR5Ie3FV-61" target="MV8AUcDROkqsjR5Ie3FV-63" edge="1">
          <mxGeometry relative="1" as="geometry" />
        </mxCell>
        <mxCell id="MV8AUcDROkqsjR5Ie3FV-61" value="&lt;span style=&quot;font-size: 14px;&quot;&gt;Production Server (Re 0A)&lt;/span&gt;" style="rounded=1;whiteSpace=wrap;html=1;fillColor=#dae8fc;strokeColor=#6c8ebf;" parent="1" vertex="1">
          <mxGeometry x="-140" y="1620" width="240" height="70" as="geometry" />
        </mxCell>
        <mxCell id="MV8AUcDROkqsjR5Ie3FV-63" value="END" style="ellipse;whiteSpace=wrap;html=1;fillColor=#d5e8d4;strokeColor=#82b366;" parent="1" vertex="1">
          <mxGeometry x="-80" y="1790" width="120" height="80" as="geometry" />
        </mxCell>
        <mxCell id="MV8AUcDROkqsjR5Ie3FV-89" value="Table(Release at start)" style="shape=table;startSize=30;container=1;collapsible=0;childLayout=tableLayout;fixedRows=1;rowLines=0;fontStyle=0;strokeColor=default;fontSize=16;fillColor=#5abd0a;" parent="1" vertex="1">
          <mxGeometry x="-750" y="60" width="490" height="120" as="geometry" />
        </mxCell>
        <mxCell id="MV8AUcDROkqsjR5Ie3FV-90" value="" style="shape=tableRow;horizontal=0;startSize=0;swimlaneHead=0;swimlaneBody=0;top=0;left=0;bottom=0;right=0;collapsible=0;dropTarget=0;fillColor=none;points=[[0,0.5],[1,0.5]];portConstraint=eastwest;strokeColor=inherit;fontSize=16;" parent="MV8AUcDROkqsjR5Ie3FV-89" vertex="1">
          <mxGeometry y="30" width="490" height="30" as="geometry" />
        </mxCell>
        <mxCell id="MV8AUcDROkqsjR5Ie3FV-91" value="Re 0(A)" style="shape=partialRectangle;html=1;whiteSpace=wrap;connectable=0;fillColor=none;top=0;left=0;bottom=0;right=0;overflow=hidden;pointerEvents=1;strokeColor=inherit;fontSize=16;" parent="MV8AUcDROkqsjR5Ie3FV-90" vertex="1">
          <mxGeometry width="109" height="30" as="geometry">
            <mxRectangle width="109" height="30" as="alternateBounds" />
          </mxGeometry>
        </mxCell>
        <mxCell id="MV8AUcDROkqsjR5Ie3FV-92" value="Baseline Server" style="shape=partialRectangle;html=1;whiteSpace=wrap;connectable=0;fillColor=none;top=0;left=0;bottom=0;right=0;align=left;spacingLeft=6;overflow=hidden;strokeColor=inherit;fontSize=16;" parent="MV8AUcDROkqsjR5Ie3FV-90" vertex="1">
          <mxGeometry x="109" width="381" height="30" as="geometry">
            <mxRectangle width="381" height="30" as="alternateBounds" />
          </mxGeometry>
        </mxCell>
        <mxCell id="MV8AUcDROkqsjR5Ie3FV-93" value="" style="shape=tableRow;horizontal=0;startSize=0;swimlaneHead=0;swimlaneBody=0;top=0;left=0;bottom=0;right=0;collapsible=0;dropTarget=0;fillColor=none;points=[[0,0.5],[1,0.5]];portConstraint=eastwest;strokeColor=inherit;fontSize=16;" parent="MV8AUcDROkqsjR5Ie3FV-89" vertex="1">
          <mxGeometry y="60" width="490" height="30" as="geometry" />
        </mxCell>
        <mxCell id="MV8AUcDROkqsjR5Ie3FV-94" value="Re 0(A-1)" style="shape=partialRectangle;html=1;whiteSpace=wrap;connectable=0;fillColor=none;top=0;left=0;bottom=0;right=0;overflow=hidden;strokeColor=inherit;fontSize=16;" parent="MV8AUcDROkqsjR5Ie3FV-93" vertex="1">
          <mxGeometry width="109" height="30" as="geometry">
            <mxRectangle width="109" height="30" as="alternateBounds" />
          </mxGeometry>
        </mxCell>
        <mxCell id="MV8AUcDROkqsjR5Ie3FV-95" value="Release Server" style="shape=partialRectangle;html=1;whiteSpace=wrap;connectable=0;fillColor=none;top=0;left=0;bottom=0;right=0;align=left;spacingLeft=6;overflow=hidden;strokeColor=inherit;fontSize=16;" parent="MV8AUcDROkqsjR5Ie3FV-93" vertex="1">
          <mxGeometry x="109" width="381" height="30" as="geometry">
            <mxRectangle width="381" height="30" as="alternateBounds" />
          </mxGeometry>
        </mxCell>
        <mxCell id="MV8AUcDROkqsjR5Ie3FV-96" value="" style="shape=tableRow;horizontal=0;startSize=0;swimlaneHead=0;swimlaneBody=0;top=0;left=0;bottom=0;right=0;collapsible=0;dropTarget=0;fillColor=none;points=[[0,0.5],[1,0.5]];portConstraint=eastwest;strokeColor=inherit;fontSize=16;" parent="MV8AUcDROkqsjR5Ie3FV-89" vertex="1">
          <mxGeometry y="90" width="490" height="30" as="geometry" />
        </mxCell>
        <mxCell id="MV8AUcDROkqsjR5Ie3FV-97" value="Re 0(A-1)" style="shape=partialRectangle;html=1;whiteSpace=wrap;connectable=0;fillColor=none;top=0;left=0;bottom=0;right=0;overflow=hidden;strokeColor=inherit;fontSize=16;" parent="MV8AUcDROkqsjR5Ie3FV-96" vertex="1">
          <mxGeometry width="109" height="30" as="geometry">
            <mxRectangle width="109" height="30" as="alternateBounds" />
          </mxGeometry>
        </mxCell>
        <mxCell id="MV8AUcDROkqsjR5Ie3FV-98" value="Production Server" style="shape=partialRectangle;html=1;whiteSpace=wrap;connectable=0;fillColor=none;top=0;left=0;bottom=0;right=0;align=left;spacingLeft=6;overflow=hidden;strokeColor=inherit;fontSize=16;" parent="MV8AUcDROkqsjR5Ie3FV-96" vertex="1">
          <mxGeometry x="109" width="381" height="30" as="geometry">
            <mxRectangle width="381" height="30" as="alternateBounds" />
          </mxGeometry>
        </mxCell>
        <mxCell id="MV8AUcDROkqsjR5Ie3FV-99" value="Table(Release after a deployment)" style="shape=table;startSize=30;container=1;collapsible=0;childLayout=tableLayout;fixedRows=1;rowLines=0;fontStyle=0;strokeColor=default;fontSize=16;fillColor=#5abd0a;" parent="1" vertex="1">
          <mxGeometry x="-750" y="240" width="490" height="120" as="geometry" />
        </mxCell>
        <mxCell id="MV8AUcDROkqsjR5Ie3FV-100" value="" style="shape=tableRow;horizontal=0;startSize=0;swimlaneHead=0;swimlaneBody=0;top=0;left=0;bottom=0;right=0;collapsible=0;dropTarget=0;fillColor=none;points=[[0,0.5],[1,0.5]];portConstraint=eastwest;strokeColor=inherit;fontSize=16;" parent="MV8AUcDROkqsjR5Ie3FV-99" vertex="1">
          <mxGeometry y="30" width="490" height="30" as="geometry" />
        </mxCell>
        <mxCell id="MV8AUcDROkqsjR5Ie3FV-101" value="Re 0(A+1)" style="shape=partialRectangle;html=1;whiteSpace=wrap;connectable=0;fillColor=none;top=0;left=0;bottom=0;right=0;overflow=hidden;pointerEvents=1;strokeColor=inherit;fontSize=16;" parent="MV8AUcDROkqsjR5Ie3FV-100" vertex="1">
          <mxGeometry width="109" height="30" as="geometry">
            <mxRectangle width="109" height="30" as="alternateBounds" />
          </mxGeometry>
        </mxCell>
        <mxCell id="MV8AUcDROkqsjR5Ie3FV-102" value="Baseline Server" style="shape=partialRectangle;html=1;whiteSpace=wrap;connectable=0;fillColor=none;top=0;left=0;bottom=0;right=0;align=left;spacingLeft=6;overflow=hidden;strokeColor=inherit;fontSize=16;" parent="MV8AUcDROkqsjR5Ie3FV-100" vertex="1">
          <mxGeometry x="109" width="381" height="30" as="geometry">
            <mxRectangle width="381" height="30" as="alternateBounds" />
          </mxGeometry>
        </mxCell>
        <mxCell id="MV8AUcDROkqsjR5Ie3FV-103" value="" style="shape=tableRow;horizontal=0;startSize=0;swimlaneHead=0;swimlaneBody=0;top=0;left=0;bottom=0;right=0;collapsible=0;dropTarget=0;fillColor=none;points=[[0,0.5],[1,0.5]];portConstraint=eastwest;strokeColor=inherit;fontSize=16;" parent="MV8AUcDROkqsjR5Ie3FV-99" vertex="1">
          <mxGeometry y="60" width="490" height="30" as="geometry" />
        </mxCell>
        <mxCell id="MV8AUcDROkqsjR5Ie3FV-104" value="Re 0(A)" style="shape=partialRectangle;html=1;whiteSpace=wrap;connectable=0;fillColor=none;top=0;left=0;bottom=0;right=0;overflow=hidden;strokeColor=inherit;fontSize=16;" parent="MV8AUcDROkqsjR5Ie3FV-103" vertex="1">
          <mxGeometry width="109" height="30" as="geometry">
            <mxRectangle width="109" height="30" as="alternateBounds" />
          </mxGeometry>
        </mxCell>
        <mxCell id="MV8AUcDROkqsjR5Ie3FV-105" value="Release Server" style="shape=partialRectangle;html=1;whiteSpace=wrap;connectable=0;fillColor=none;top=0;left=0;bottom=0;right=0;align=left;spacingLeft=6;overflow=hidden;strokeColor=inherit;fontSize=16;" parent="MV8AUcDROkqsjR5Ie3FV-103" vertex="1">
          <mxGeometry x="109" width="381" height="30" as="geometry">
            <mxRectangle width="381" height="30" as="alternateBounds" />
          </mxGeometry>
        </mxCell>
        <mxCell id="MV8AUcDROkqsjR5Ie3FV-106" value="" style="shape=tableRow;horizontal=0;startSize=0;swimlaneHead=0;swimlaneBody=0;top=0;left=0;bottom=0;right=0;collapsible=0;dropTarget=0;fillColor=none;points=[[0,0.5],[1,0.5]];portConstraint=eastwest;strokeColor=inherit;fontSize=16;" parent="MV8AUcDROkqsjR5Ie3FV-99" vertex="1">
          <mxGeometry y="90" width="490" height="30" as="geometry" />
        </mxCell>
        <mxCell id="MV8AUcDROkqsjR5Ie3FV-107" value="Re 0(A)" style="shape=partialRectangle;html=1;whiteSpace=wrap;connectable=0;fillColor=none;top=0;left=0;bottom=0;right=0;overflow=hidden;strokeColor=inherit;fontSize=16;" parent="MV8AUcDROkqsjR5Ie3FV-106" vertex="1">
          <mxGeometry width="109" height="30" as="geometry">
            <mxRectangle width="109" height="30" as="alternateBounds" />
          </mxGeometry>
        </mxCell>
        <mxCell id="MV8AUcDROkqsjR5Ie3FV-108" value="Production Server" style="shape=partialRectangle;html=1;whiteSpace=wrap;connectable=0;fillColor=none;top=0;left=0;bottom=0;right=0;align=left;spacingLeft=6;overflow=hidden;strokeColor=inherit;fontSize=16;" parent="MV8AUcDROkqsjR5Ie3FV-106" vertex="1">
          <mxGeometry x="109" width="381" height="30" as="geometry">
            <mxRectangle width="381" height="30" as="alternateBounds" />
          </mxGeometry>
        </mxCell>
      </root>
    </mxGraphModel>
  </diagram>
</mxfile>
